%TF.GenerationSoftware,KiCad,Pcbnew,(6.0.7)*%
%TF.CreationDate,2023-03-11T10:43:17+08:00*%
%TF.ProjectId,popn_pico,706f706e-5f70-4696-936f-2e6b69636164,rev?*%
%TF.SameCoordinates,Original*%
%TF.FileFunction,Legend,Top*%
%TF.FilePolarity,Positive*%
%FSLAX46Y46*%
G04 Gerber Fmt 4.6, Leading zero omitted, Abs format (unit mm)*
G04 Created by KiCad (PCBNEW (6.0.7)) date 2023-03-11 10:43:17*
%MOMM*%
%LPD*%
G01*
G04 APERTURE LIST*
G04 Aperture macros list*
%AMRoundRect*
0 Rectangle with rounded corners*
0 $1 Rounding radius*
0 $2 $3 $4 $5 $6 $7 $8 $9 X,Y pos of 4 corners*
0 Add a 4 corners polygon primitive as box body*
4,1,4,$2,$3,$4,$5,$6,$7,$8,$9,$2,$3,0*
0 Add four circle primitives for the rounded corners*
1,1,$1+$1,$2,$3*
1,1,$1+$1,$4,$5*
1,1,$1+$1,$6,$7*
1,1,$1+$1,$8,$9*
0 Add four rect primitives between the rounded corners*
20,1,$1+$1,$2,$3,$4,$5,0*
20,1,$1+$1,$4,$5,$6,$7,0*
20,1,$1+$1,$6,$7,$8,$9,0*
20,1,$1+$1,$8,$9,$2,$3,0*%
G04 Aperture macros list end*
%ADD10C,0.150000*%
%ADD11C,0.120000*%
%ADD12C,0.100000*%
%ADD13C,3.200000*%
%ADD14C,3.000000*%
%ADD15C,3.987800*%
%ADD16C,1.750000*%
%ADD17R,1.500000X2.600000*%
%ADD18RoundRect,0.110000X-0.110000X-0.640000X0.110000X-0.640000X0.110000X0.640000X-0.110000X0.640000X0*%
%ADD19RoundRect,0.200000X-0.200000X-0.275000X0.200000X-0.275000X0.200000X0.275000X-0.200000X0.275000X0*%
%ADD20RoundRect,0.110000X0.110000X0.640000X-0.110000X0.640000X-0.110000X-0.640000X0.110000X-0.640000X0*%
%ADD21RoundRect,0.200000X-0.275000X0.200000X-0.275000X-0.200000X0.275000X-0.200000X0.275000X0.200000X0*%
%ADD22R,1.650000X1.400000*%
%ADD23RoundRect,0.110000X-0.640000X0.110000X-0.640000X-0.110000X0.640000X-0.110000X0.640000X0.110000X0*%
%ADD24RoundRect,0.110000X0.640000X-0.110000X0.640000X0.110000X-0.640000X0.110000X-0.640000X-0.110000X0*%
%ADD25C,0.650000*%
%ADD26R,0.600000X1.450000*%
%ADD27R,0.300000X1.450000*%
%ADD28O,1.000000X2.100000*%
%ADD29O,1.000000X1.600000*%
%ADD30O,1.700000X1.700000*%
%ADD31R,1.700000X1.700000*%
%ADD32RoundRect,0.300000X-0.950000X0.450000X-0.950000X-0.450000X0.950000X-0.450000X0.950000X0.450000X0*%
G04 APERTURE END LIST*
D10*
%TO.C,MX7*%
X182031209Y-141119316D02*
X182031209Y-140119316D01*
X182364543Y-140833602D01*
X182697876Y-140119316D01*
X182697876Y-141119316D01*
X183078828Y-140119316D02*
X183745495Y-141119316D01*
X183745495Y-140119316D02*
X183078828Y-141119316D01*
X184031209Y-140119316D02*
X184697876Y-140119316D01*
X184269304Y-141119316D01*
X179739047Y-137471428D02*
X180500952Y-137471428D01*
X180120000Y-137852380D02*
X180120000Y-137090476D01*
X186139047Y-137471428D02*
X186900952Y-137471428D01*
%TO.C,R1*%
X69328333Y-136422380D02*
X68995000Y-135946190D01*
X68756904Y-136422380D02*
X68756904Y-135422380D01*
X69137857Y-135422380D01*
X69233095Y-135470000D01*
X69280714Y-135517619D01*
X69328333Y-135612857D01*
X69328333Y-135755714D01*
X69280714Y-135850952D01*
X69233095Y-135898571D01*
X69137857Y-135946190D01*
X68756904Y-135946190D01*
X70280714Y-136422380D02*
X69709285Y-136422380D01*
X69995000Y-136422380D02*
X69995000Y-135422380D01*
X69899761Y-135565238D01*
X69804523Y-135660476D01*
X69709285Y-135708095D01*
%TO.C,R10*%
X156427142Y-91102380D02*
X156093809Y-90626190D01*
X155855714Y-91102380D02*
X155855714Y-90102380D01*
X156236666Y-90102380D01*
X156331904Y-90150000D01*
X156379523Y-90197619D01*
X156427142Y-90292857D01*
X156427142Y-90435714D01*
X156379523Y-90530952D01*
X156331904Y-90578571D01*
X156236666Y-90626190D01*
X155855714Y-90626190D01*
X157379523Y-91102380D02*
X156808095Y-91102380D01*
X157093809Y-91102380D02*
X157093809Y-90102380D01*
X156998571Y-90245238D01*
X156903333Y-90340476D01*
X156808095Y-90388095D01*
X157998571Y-90102380D02*
X158093809Y-90102380D01*
X158189047Y-90150000D01*
X158236666Y-90197619D01*
X158284285Y-90292857D01*
X158331904Y-90483333D01*
X158331904Y-90721428D01*
X158284285Y-90911904D01*
X158236666Y-91007142D01*
X158189047Y-91054761D01*
X158093809Y-91102380D01*
X157998571Y-91102380D01*
X157903333Y-91054761D01*
X157855714Y-91007142D01*
X157808095Y-90911904D01*
X157760476Y-90721428D01*
X157760476Y-90483333D01*
X157808095Y-90292857D01*
X157855714Y-90197619D01*
X157903333Y-90150000D01*
X157998571Y-90102380D01*
%TO.C,R8*%
X195153333Y-103422380D02*
X194820000Y-102946190D01*
X194581904Y-103422380D02*
X194581904Y-102422380D01*
X194962857Y-102422380D01*
X195058095Y-102470000D01*
X195105714Y-102517619D01*
X195153333Y-102612857D01*
X195153333Y-102755714D01*
X195105714Y-102850952D01*
X195058095Y-102898571D01*
X194962857Y-102946190D01*
X194581904Y-102946190D01*
X195724761Y-102850952D02*
X195629523Y-102803333D01*
X195581904Y-102755714D01*
X195534285Y-102660476D01*
X195534285Y-102612857D01*
X195581904Y-102517619D01*
X195629523Y-102470000D01*
X195724761Y-102422380D01*
X195915238Y-102422380D01*
X196010476Y-102470000D01*
X196058095Y-102517619D01*
X196105714Y-102612857D01*
X196105714Y-102660476D01*
X196058095Y-102755714D01*
X196010476Y-102803333D01*
X195915238Y-102850952D01*
X195724761Y-102850952D01*
X195629523Y-102898571D01*
X195581904Y-102946190D01*
X195534285Y-103041428D01*
X195534285Y-103231904D01*
X195581904Y-103327142D01*
X195629523Y-103374761D01*
X195724761Y-103422380D01*
X195915238Y-103422380D01*
X196010476Y-103374761D01*
X196058095Y-103327142D01*
X196105714Y-103231904D01*
X196105714Y-103041428D01*
X196058095Y-102946190D01*
X196010476Y-102898571D01*
X195915238Y-102850952D01*
%TO.C,MX9*%
X218031209Y-141119316D02*
X218031209Y-140119316D01*
X218364543Y-140833602D01*
X218697876Y-140119316D01*
X218697876Y-141119316D01*
X219078828Y-140119316D02*
X219745495Y-141119316D01*
X219745495Y-140119316D02*
X219078828Y-141119316D01*
X220174066Y-141119316D02*
X220364543Y-141119316D01*
X220459781Y-141071697D01*
X220507400Y-141024078D01*
X220602638Y-140881221D01*
X220650257Y-140690745D01*
X220650257Y-140309793D01*
X220602638Y-140214555D01*
X220555019Y-140166936D01*
X220459781Y-140119316D01*
X220269304Y-140119316D01*
X220174066Y-140166936D01*
X220126447Y-140214555D01*
X220078828Y-140309793D01*
X220078828Y-140547888D01*
X220126447Y-140643126D01*
X220174066Y-140690745D01*
X220269304Y-140738364D01*
X220459781Y-140738364D01*
X220555019Y-140690745D01*
X220602638Y-140643126D01*
X220650257Y-140547888D01*
X222139047Y-137471428D02*
X222900952Y-137471428D01*
X215739047Y-137471428D02*
X216500952Y-137471428D01*
X216120000Y-137852380D02*
X216120000Y-137090476D01*
%TO.C,R6*%
X159153333Y-103422380D02*
X158820000Y-102946190D01*
X158581904Y-103422380D02*
X158581904Y-102422380D01*
X158962857Y-102422380D01*
X159058095Y-102470000D01*
X159105714Y-102517619D01*
X159153333Y-102612857D01*
X159153333Y-102755714D01*
X159105714Y-102850952D01*
X159058095Y-102898571D01*
X158962857Y-102946190D01*
X158581904Y-102946190D01*
X160010476Y-102422380D02*
X159820000Y-102422380D01*
X159724761Y-102470000D01*
X159677142Y-102517619D01*
X159581904Y-102660476D01*
X159534285Y-102850952D01*
X159534285Y-103231904D01*
X159581904Y-103327142D01*
X159629523Y-103374761D01*
X159724761Y-103422380D01*
X159915238Y-103422380D01*
X160010476Y-103374761D01*
X160058095Y-103327142D01*
X160105714Y-103231904D01*
X160105714Y-102993809D01*
X160058095Y-102898571D01*
X160010476Y-102850952D01*
X159915238Y-102803333D01*
X159724761Y-102803333D01*
X159629523Y-102850952D01*
X159581904Y-102898571D01*
X159534285Y-102993809D01*
%TO.C,R4*%
X123153333Y-103422380D02*
X122820000Y-102946190D01*
X122581904Y-103422380D02*
X122581904Y-102422380D01*
X122962857Y-102422380D01*
X123058095Y-102470000D01*
X123105714Y-102517619D01*
X123153333Y-102612857D01*
X123153333Y-102755714D01*
X123105714Y-102850952D01*
X123058095Y-102898571D01*
X122962857Y-102946190D01*
X122581904Y-102946190D01*
X124010476Y-102755714D02*
X124010476Y-103422380D01*
X123772380Y-102374761D02*
X123534285Y-103089047D01*
X124153333Y-103089047D01*
%TO.C,R3*%
X105153333Y-136422380D02*
X104820000Y-135946190D01*
X104581904Y-136422380D02*
X104581904Y-135422380D01*
X104962857Y-135422380D01*
X105058095Y-135470000D01*
X105105714Y-135517619D01*
X105153333Y-135612857D01*
X105153333Y-135755714D01*
X105105714Y-135850952D01*
X105058095Y-135898571D01*
X104962857Y-135946190D01*
X104581904Y-135946190D01*
X105486666Y-135422380D02*
X106105714Y-135422380D01*
X105772380Y-135803333D01*
X105915238Y-135803333D01*
X106010476Y-135850952D01*
X106058095Y-135898571D01*
X106105714Y-135993809D01*
X106105714Y-136231904D01*
X106058095Y-136327142D01*
X106010476Y-136374761D01*
X105915238Y-136422380D01*
X105629523Y-136422380D01*
X105534285Y-136374761D01*
X105486666Y-136327142D01*
%TO.C,MX8*%
X200031209Y-108119316D02*
X200031209Y-107119316D01*
X200364543Y-107833602D01*
X200697876Y-107119316D01*
X200697876Y-108119316D01*
X201078828Y-107119316D02*
X201745495Y-108119316D01*
X201745495Y-107119316D02*
X201078828Y-108119316D01*
X202269304Y-107547888D02*
X202174066Y-107500269D01*
X202126447Y-107452650D01*
X202078828Y-107357412D01*
X202078828Y-107309793D01*
X202126447Y-107214555D01*
X202174066Y-107166936D01*
X202269304Y-107119316D01*
X202459781Y-107119316D01*
X202555019Y-107166936D01*
X202602638Y-107214555D01*
X202650257Y-107309793D01*
X202650257Y-107357412D01*
X202602638Y-107452650D01*
X202555019Y-107500269D01*
X202459781Y-107547888D01*
X202269304Y-107547888D01*
X202174066Y-107595507D01*
X202126447Y-107643126D01*
X202078828Y-107738364D01*
X202078828Y-107928840D01*
X202126447Y-108024078D01*
X202174066Y-108071697D01*
X202269304Y-108119316D01*
X202459781Y-108119316D01*
X202555019Y-108071697D01*
X202602638Y-108024078D01*
X202650257Y-107928840D01*
X202650257Y-107738364D01*
X202602638Y-107643126D01*
X202555019Y-107595507D01*
X202459781Y-107547888D01*
X204139047Y-104471428D02*
X204900952Y-104471428D01*
X197739047Y-104471428D02*
X198500952Y-104471428D01*
X198120000Y-104852380D02*
X198120000Y-104090476D01*
%TO.C,MX1*%
X74031209Y-141119316D02*
X74031209Y-140119316D01*
X74364543Y-140833602D01*
X74697876Y-140119316D01*
X74697876Y-141119316D01*
X75078828Y-140119316D02*
X75745495Y-141119316D01*
X75745495Y-140119316D02*
X75078828Y-141119316D01*
X76650257Y-141119316D02*
X76078828Y-141119316D01*
X76364543Y-141119316D02*
X76364543Y-140119316D01*
X76269304Y-140262174D01*
X76174066Y-140357412D01*
X76078828Y-140405031D01*
X71739047Y-137471428D02*
X72500952Y-137471428D01*
X72120000Y-137852380D02*
X72120000Y-137090476D01*
X78139047Y-137471428D02*
X78900952Y-137471428D01*
%TO.C,MX5*%
X146031209Y-141119316D02*
X146031209Y-140119316D01*
X146364543Y-140833602D01*
X146697876Y-140119316D01*
X146697876Y-141119316D01*
X147078828Y-140119316D02*
X147745495Y-141119316D01*
X147745495Y-140119316D02*
X147078828Y-141119316D01*
X148602638Y-140119316D02*
X148126447Y-140119316D01*
X148078828Y-140595507D01*
X148126447Y-140547888D01*
X148221685Y-140500269D01*
X148459781Y-140500269D01*
X148555019Y-140547888D01*
X148602638Y-140595507D01*
X148650257Y-140690745D01*
X148650257Y-140928840D01*
X148602638Y-141024078D01*
X148555019Y-141071697D01*
X148459781Y-141119316D01*
X148221685Y-141119316D01*
X148126447Y-141071697D01*
X148078828Y-141024078D01*
X143739047Y-137471428D02*
X144500952Y-137471428D01*
X144120000Y-137852380D02*
X144120000Y-137090476D01*
X150139047Y-137471428D02*
X150900952Y-137471428D01*
%TO.C,MX4*%
X128031209Y-108119316D02*
X128031209Y-107119316D01*
X128364543Y-107833602D01*
X128697876Y-107119316D01*
X128697876Y-108119316D01*
X129078828Y-107119316D02*
X129745495Y-108119316D01*
X129745495Y-107119316D02*
X129078828Y-108119316D01*
X130555019Y-107452650D02*
X130555019Y-108119316D01*
X130316924Y-107071697D02*
X130078828Y-107785983D01*
X130697876Y-107785983D01*
X125739047Y-104471428D02*
X126500952Y-104471428D01*
X126120000Y-104852380D02*
X126120000Y-104090476D01*
X132139047Y-104471428D02*
X132900952Y-104471428D01*
%TO.C,MX6*%
X164031209Y-108119316D02*
X164031209Y-107119316D01*
X164364543Y-107833602D01*
X164697876Y-107119316D01*
X164697876Y-108119316D01*
X165078828Y-107119316D02*
X165745495Y-108119316D01*
X165745495Y-107119316D02*
X165078828Y-108119316D01*
X166555019Y-107119316D02*
X166364543Y-107119316D01*
X166269304Y-107166936D01*
X166221685Y-107214555D01*
X166126447Y-107357412D01*
X166078828Y-107547888D01*
X166078828Y-107928840D01*
X166126447Y-108024078D01*
X166174066Y-108071697D01*
X166269304Y-108119316D01*
X166459781Y-108119316D01*
X166555019Y-108071697D01*
X166602638Y-108024078D01*
X166650257Y-107928840D01*
X166650257Y-107690745D01*
X166602638Y-107595507D01*
X166555019Y-107547888D01*
X166459781Y-107500269D01*
X166269304Y-107500269D01*
X166174066Y-107547888D01*
X166126447Y-107595507D01*
X166078828Y-107690745D01*
X168139047Y-104471428D02*
X168900952Y-104471428D01*
X161739047Y-104471428D02*
X162500952Y-104471428D01*
X162120000Y-104852380D02*
X162120000Y-104090476D01*
%TO.C,R20*%
X116177142Y-75102380D02*
X115843809Y-74626190D01*
X115605714Y-75102380D02*
X115605714Y-74102380D01*
X115986666Y-74102380D01*
X116081904Y-74150000D01*
X116129523Y-74197619D01*
X116177142Y-74292857D01*
X116177142Y-74435714D01*
X116129523Y-74530952D01*
X116081904Y-74578571D01*
X115986666Y-74626190D01*
X115605714Y-74626190D01*
X116558095Y-74197619D02*
X116605714Y-74150000D01*
X116700952Y-74102380D01*
X116939047Y-74102380D01*
X117034285Y-74150000D01*
X117081904Y-74197619D01*
X117129523Y-74292857D01*
X117129523Y-74388095D01*
X117081904Y-74530952D01*
X116510476Y-75102380D01*
X117129523Y-75102380D01*
X117748571Y-74102380D02*
X117843809Y-74102380D01*
X117939047Y-74150000D01*
X117986666Y-74197619D01*
X118034285Y-74292857D01*
X118081904Y-74483333D01*
X118081904Y-74721428D01*
X118034285Y-74911904D01*
X117986666Y-75007142D01*
X117939047Y-75054761D01*
X117843809Y-75102380D01*
X117748571Y-75102380D01*
X117653333Y-75054761D01*
X117605714Y-75007142D01*
X117558095Y-74911904D01*
X117510476Y-74721428D01*
X117510476Y-74483333D01*
X117558095Y-74292857D01*
X117605714Y-74197619D01*
X117653333Y-74150000D01*
X117748571Y-74102380D01*
%TO.C,MX2*%
X92031209Y-108119316D02*
X92031209Y-107119316D01*
X92364543Y-107833602D01*
X92697876Y-107119316D01*
X92697876Y-108119316D01*
X93078828Y-107119316D02*
X93745495Y-108119316D01*
X93745495Y-107119316D02*
X93078828Y-108119316D01*
X94078828Y-107214555D02*
X94126447Y-107166936D01*
X94221685Y-107119316D01*
X94459781Y-107119316D01*
X94555019Y-107166936D01*
X94602638Y-107214555D01*
X94650257Y-107309793D01*
X94650257Y-107405031D01*
X94602638Y-107547888D01*
X94031209Y-108119316D01*
X94650257Y-108119316D01*
X89739047Y-104471428D02*
X90500952Y-104471428D01*
X90120000Y-104852380D02*
X90120000Y-104090476D01*
X96139047Y-104471428D02*
X96900952Y-104471428D01*
%TO.C,R2*%
X87153333Y-103422380D02*
X86820000Y-102946190D01*
X86581904Y-103422380D02*
X86581904Y-102422380D01*
X86962857Y-102422380D01*
X87058095Y-102470000D01*
X87105714Y-102517619D01*
X87153333Y-102612857D01*
X87153333Y-102755714D01*
X87105714Y-102850952D01*
X87058095Y-102898571D01*
X86962857Y-102946190D01*
X86581904Y-102946190D01*
X87534285Y-102517619D02*
X87581904Y-102470000D01*
X87677142Y-102422380D01*
X87915238Y-102422380D01*
X88010476Y-102470000D01*
X88058095Y-102517619D01*
X88105714Y-102612857D01*
X88105714Y-102708095D01*
X88058095Y-102850952D01*
X87486666Y-103422380D01*
X88105714Y-103422380D01*
%TO.C,R21*%
X108677142Y-74852380D02*
X108343809Y-74376190D01*
X108105714Y-74852380D02*
X108105714Y-73852380D01*
X108486666Y-73852380D01*
X108581904Y-73900000D01*
X108629523Y-73947619D01*
X108677142Y-74042857D01*
X108677142Y-74185714D01*
X108629523Y-74280952D01*
X108581904Y-74328571D01*
X108486666Y-74376190D01*
X108105714Y-74376190D01*
X109058095Y-73947619D02*
X109105714Y-73900000D01*
X109200952Y-73852380D01*
X109439047Y-73852380D01*
X109534285Y-73900000D01*
X109581904Y-73947619D01*
X109629523Y-74042857D01*
X109629523Y-74138095D01*
X109581904Y-74280952D01*
X109010476Y-74852380D01*
X109629523Y-74852380D01*
X110581904Y-74852380D02*
X110010476Y-74852380D01*
X110296190Y-74852380D02*
X110296190Y-73852380D01*
X110200952Y-73995238D01*
X110105714Y-74090476D01*
X110010476Y-74138095D01*
%TO.C,SW1*%
X181986666Y-66504761D02*
X182129523Y-66552380D01*
X182367619Y-66552380D01*
X182462857Y-66504761D01*
X182510476Y-66457142D01*
X182558095Y-66361904D01*
X182558095Y-66266666D01*
X182510476Y-66171428D01*
X182462857Y-66123809D01*
X182367619Y-66076190D01*
X182177142Y-66028571D01*
X182081904Y-65980952D01*
X182034285Y-65933333D01*
X181986666Y-65838095D01*
X181986666Y-65742857D01*
X182034285Y-65647619D01*
X182081904Y-65600000D01*
X182177142Y-65552380D01*
X182415238Y-65552380D01*
X182558095Y-65600000D01*
X182891428Y-65552380D02*
X183129523Y-66552380D01*
X183320000Y-65838095D01*
X183510476Y-66552380D01*
X183748571Y-65552380D01*
X184653333Y-66552380D02*
X184081904Y-66552380D01*
X184367619Y-66552380D02*
X184367619Y-65552380D01*
X184272380Y-65695238D01*
X184177142Y-65790476D01*
X184081904Y-65838095D01*
%TO.C,R7*%
X177153333Y-136422380D02*
X176820000Y-135946190D01*
X176581904Y-136422380D02*
X176581904Y-135422380D01*
X176962857Y-135422380D01*
X177058095Y-135470000D01*
X177105714Y-135517619D01*
X177153333Y-135612857D01*
X177153333Y-135755714D01*
X177105714Y-135850952D01*
X177058095Y-135898571D01*
X176962857Y-135946190D01*
X176581904Y-135946190D01*
X177486666Y-135422380D02*
X178153333Y-135422380D01*
X177724761Y-136422380D01*
%TO.C,SW2*%
X193986666Y-66504761D02*
X194129523Y-66552380D01*
X194367619Y-66552380D01*
X194462857Y-66504761D01*
X194510476Y-66457142D01*
X194558095Y-66361904D01*
X194558095Y-66266666D01*
X194510476Y-66171428D01*
X194462857Y-66123809D01*
X194367619Y-66076190D01*
X194177142Y-66028571D01*
X194081904Y-65980952D01*
X194034285Y-65933333D01*
X193986666Y-65838095D01*
X193986666Y-65742857D01*
X194034285Y-65647619D01*
X194081904Y-65600000D01*
X194177142Y-65552380D01*
X194415238Y-65552380D01*
X194558095Y-65600000D01*
X194891428Y-65552380D02*
X195129523Y-66552380D01*
X195320000Y-65838095D01*
X195510476Y-66552380D01*
X195748571Y-65552380D01*
X196081904Y-65647619D02*
X196129523Y-65600000D01*
X196224761Y-65552380D01*
X196462857Y-65552380D01*
X196558095Y-65600000D01*
X196605714Y-65647619D01*
X196653333Y-65742857D01*
X196653333Y-65838095D01*
X196605714Y-65980952D01*
X196034285Y-66552380D01*
X196653333Y-66552380D01*
%TO.C,MX3*%
X110031209Y-141119316D02*
X110031209Y-140119316D01*
X110364543Y-140833602D01*
X110697876Y-140119316D01*
X110697876Y-141119316D01*
X111078828Y-140119316D02*
X111745495Y-141119316D01*
X111745495Y-140119316D02*
X111078828Y-141119316D01*
X112031209Y-140119316D02*
X112650257Y-140119316D01*
X112316924Y-140500269D01*
X112459781Y-140500269D01*
X112555019Y-140547888D01*
X112602638Y-140595507D01*
X112650257Y-140690745D01*
X112650257Y-140928840D01*
X112602638Y-141024078D01*
X112555019Y-141071697D01*
X112459781Y-141119316D01*
X112174066Y-141119316D01*
X112078828Y-141071697D01*
X112031209Y-141024078D01*
X107739047Y-137471428D02*
X108500952Y-137471428D01*
X108120000Y-137852380D02*
X108120000Y-137090476D01*
X114139047Y-137471428D02*
X114900952Y-137471428D01*
%TO.C,R9*%
X213328333Y-136422380D02*
X212995000Y-135946190D01*
X212756904Y-136422380D02*
X212756904Y-135422380D01*
X213137857Y-135422380D01*
X213233095Y-135470000D01*
X213280714Y-135517619D01*
X213328333Y-135612857D01*
X213328333Y-135755714D01*
X213280714Y-135850952D01*
X213233095Y-135898571D01*
X213137857Y-135946190D01*
X212756904Y-135946190D01*
X213804523Y-136422380D02*
X213995000Y-136422380D01*
X214090238Y-136374761D01*
X214137857Y-136327142D01*
X214233095Y-136184285D01*
X214280714Y-135993809D01*
X214280714Y-135612857D01*
X214233095Y-135517619D01*
X214185476Y-135470000D01*
X214090238Y-135422380D01*
X213899761Y-135422380D01*
X213804523Y-135470000D01*
X213756904Y-135517619D01*
X213709285Y-135612857D01*
X213709285Y-135850952D01*
X213756904Y-135946190D01*
X213804523Y-135993809D01*
X213899761Y-136041428D01*
X214090238Y-136041428D01*
X214185476Y-135993809D01*
X214233095Y-135946190D01*
X214280714Y-135850952D01*
%TO.C,R5*%
X141153333Y-136422380D02*
X140820000Y-135946190D01*
X140581904Y-136422380D02*
X140581904Y-135422380D01*
X140962857Y-135422380D01*
X141058095Y-135470000D01*
X141105714Y-135517619D01*
X141153333Y-135612857D01*
X141153333Y-135755714D01*
X141105714Y-135850952D01*
X141058095Y-135898571D01*
X140962857Y-135946190D01*
X140581904Y-135946190D01*
X142058095Y-135422380D02*
X141581904Y-135422380D01*
X141534285Y-135898571D01*
X141581904Y-135850952D01*
X141677142Y-135803333D01*
X141915238Y-135803333D01*
X142010476Y-135850952D01*
X142058095Y-135898571D01*
X142105714Y-135993809D01*
X142105714Y-136231904D01*
X142058095Y-136327142D01*
X142010476Y-136374761D01*
X141915238Y-136422380D01*
X141677142Y-136422380D01*
X141581904Y-136374761D01*
X141534285Y-136327142D01*
%TO.C,USB1*%
X104331904Y-66352380D02*
X104331904Y-67161904D01*
X104379523Y-67257142D01*
X104427142Y-67304761D01*
X104522380Y-67352380D01*
X104712857Y-67352380D01*
X104808095Y-67304761D01*
X104855714Y-67257142D01*
X104903333Y-67161904D01*
X104903333Y-66352380D01*
X105331904Y-67304761D02*
X105474761Y-67352380D01*
X105712857Y-67352380D01*
X105808095Y-67304761D01*
X105855714Y-67257142D01*
X105903333Y-67161904D01*
X105903333Y-67066666D01*
X105855714Y-66971428D01*
X105808095Y-66923809D01*
X105712857Y-66876190D01*
X105522380Y-66828571D01*
X105427142Y-66780952D01*
X105379523Y-66733333D01*
X105331904Y-66638095D01*
X105331904Y-66542857D01*
X105379523Y-66447619D01*
X105427142Y-66400000D01*
X105522380Y-66352380D01*
X105760476Y-66352380D01*
X105903333Y-66400000D01*
X106665238Y-66828571D02*
X106808095Y-66876190D01*
X106855714Y-66923809D01*
X106903333Y-67019047D01*
X106903333Y-67161904D01*
X106855714Y-67257142D01*
X106808095Y-67304761D01*
X106712857Y-67352380D01*
X106331904Y-67352380D01*
X106331904Y-66352380D01*
X106665238Y-66352380D01*
X106760476Y-66400000D01*
X106808095Y-66447619D01*
X106855714Y-66542857D01*
X106855714Y-66638095D01*
X106808095Y-66733333D01*
X106760476Y-66780952D01*
X106665238Y-66828571D01*
X106331904Y-66828571D01*
X107855714Y-67352380D02*
X107284285Y-67352380D01*
X107570000Y-67352380D02*
X107570000Y-66352380D01*
X107474761Y-66495238D01*
X107379523Y-66590476D01*
X107284285Y-66638095D01*
D11*
%TO.C,MX7*%
X180920000Y-139000000D02*
X185720000Y-139000000D01*
X180920000Y-136000000D02*
X180920000Y-139000000D01*
X185720000Y-139000000D02*
X185720000Y-136000000D01*
X185720000Y-136000000D02*
X180920000Y-136000000D01*
D10*
%TO.C,LED2*%
X145420000Y-88000644D02*
X145720000Y-88000644D01*
X145970000Y-88250644D02*
X148670000Y-88250644D01*
X149220000Y-88000644D02*
X148920000Y-88000644D01*
X149220000Y-89500644D02*
X148920000Y-89500644D01*
X145420000Y-89500644D02*
X145420000Y-88000644D01*
X145970000Y-88250644D02*
X145420000Y-88800644D01*
X145420000Y-89500644D02*
X145720000Y-89500644D01*
X149220000Y-88000644D02*
X149220000Y-89500644D01*
X145720000Y-88000644D02*
X145970000Y-88250644D01*
X148920000Y-88000644D02*
X148670000Y-88250644D01*
X149005848Y-88427140D02*
G75*
G03*
X149005848Y-88427140I-75000J0D01*
G01*
D11*
%TO.C,R1*%
X69257742Y-136877500D02*
X69732258Y-136877500D01*
X69257742Y-137922500D02*
X69732258Y-137922500D01*
%TO.C,R10*%
X156832742Y-89422500D02*
X157307258Y-89422500D01*
X156832742Y-88377500D02*
X157307258Y-88377500D01*
%TO.C,R8*%
X195082742Y-104922500D02*
X195557258Y-104922500D01*
X195082742Y-103877500D02*
X195557258Y-103877500D01*
%TO.C,MX9*%
X221720000Y-136000000D02*
X216920000Y-136000000D01*
X216920000Y-139000000D02*
X221720000Y-139000000D01*
X216920000Y-136000000D02*
X216920000Y-139000000D01*
X221720000Y-139000000D02*
X221720000Y-136000000D01*
D10*
%TO.C,LED8*%
X185420000Y-93150000D02*
X185720000Y-93150000D01*
X188920000Y-91650000D02*
X188670000Y-91900000D01*
X189220000Y-91650000D02*
X188920000Y-91650000D01*
X189220000Y-93150000D02*
X188920000Y-93150000D01*
X185970000Y-91900000D02*
X185420000Y-92450000D01*
X185420000Y-91650000D02*
X185720000Y-91650000D01*
X189220000Y-91650000D02*
X189220000Y-93150000D01*
X185420000Y-93150000D02*
X185420000Y-91650000D01*
X185720000Y-91650000D02*
X185970000Y-91900000D01*
X185970000Y-91900000D02*
X188670000Y-91900000D01*
X189005848Y-92076496D02*
G75*
G03*
X189005848Y-92076496I-75000J0D01*
G01*
%TO.C,LED1*%
X161420000Y-89500644D02*
X161720000Y-89500644D01*
X165220000Y-88000644D02*
X164920000Y-88000644D01*
X161970000Y-88250644D02*
X164670000Y-88250644D01*
X161970000Y-88250644D02*
X161420000Y-88800644D01*
X161420000Y-89500644D02*
X161420000Y-88000644D01*
X164920000Y-88000644D02*
X164670000Y-88250644D01*
X165220000Y-88000644D02*
X165220000Y-89500644D01*
X161720000Y-88000644D02*
X161970000Y-88250644D01*
X161420000Y-88000644D02*
X161720000Y-88000644D01*
X165220000Y-89500644D02*
X164920000Y-89500644D01*
X165005848Y-88427140D02*
G75*
G03*
X165005848Y-88427140I-75000J0D01*
G01*
D11*
%TO.C,R6*%
X159082742Y-104922500D02*
X159557258Y-104922500D01*
X159082742Y-103877500D02*
X159557258Y-103877500D01*
%TO.C,R4*%
X123082742Y-103877500D02*
X123557258Y-103877500D01*
X123082742Y-104922500D02*
X123557258Y-104922500D01*
D10*
%TO.C,LED7*%
X149220000Y-95150000D02*
X148920000Y-95150000D01*
X149220000Y-93650000D02*
X148920000Y-93650000D01*
X145420000Y-95150000D02*
X145720000Y-95150000D01*
X149220000Y-93650000D02*
X149220000Y-95150000D01*
X145720000Y-95150000D02*
X145970000Y-94900000D01*
X148920000Y-95150000D02*
X148670000Y-94900000D01*
X148670000Y-94900000D02*
X145970000Y-94900000D01*
X145420000Y-95150000D02*
X145420000Y-93650000D01*
X148670000Y-94900000D02*
X149220000Y-94350000D01*
X145420000Y-93650000D02*
X145720000Y-93650000D01*
X145784152Y-94723504D02*
G75*
G03*
X145784152Y-94723504I-75000J0D01*
G01*
D11*
%TO.C,R3*%
X105082742Y-137922500D02*
X105557258Y-137922500D01*
X105082742Y-136877500D02*
X105557258Y-136877500D01*
%TO.C,MX8*%
X203720000Y-106000000D02*
X203720000Y-103000000D01*
X203720000Y-103000000D02*
X198920000Y-103000000D01*
X198920000Y-106000000D02*
X203720000Y-106000000D01*
X198920000Y-103000000D02*
X198920000Y-106000000D01*
D10*
%TO.C,LED3*%
X129720000Y-88000644D02*
X129970000Y-88250644D01*
X133220000Y-88000644D02*
X133220000Y-89500644D01*
X129970000Y-88250644D02*
X129420000Y-88800644D01*
X133220000Y-89500644D02*
X132920000Y-89500644D01*
X129420000Y-88000644D02*
X129720000Y-88000644D01*
X129420000Y-89500644D02*
X129420000Y-88000644D01*
X132920000Y-88000644D02*
X132670000Y-88250644D01*
X129970000Y-88250644D02*
X132670000Y-88250644D01*
X129420000Y-89500644D02*
X129720000Y-89500644D01*
X133220000Y-88000644D02*
X132920000Y-88000644D01*
X133005848Y-88427140D02*
G75*
G03*
X133005848Y-88427140I-75000J0D01*
G01*
D11*
%TO.C,MX1*%
X77720000Y-139000000D02*
X77720000Y-136000000D01*
X77720000Y-136000000D02*
X72920000Y-136000000D01*
X72920000Y-139000000D02*
X77720000Y-139000000D01*
X72920000Y-136000000D02*
X72920000Y-139000000D01*
D10*
%TO.C,LED5*%
X77420000Y-103150000D02*
X77420000Y-101650000D01*
X81220000Y-103150000D02*
X80920000Y-103150000D01*
X77970000Y-101900000D02*
X80670000Y-101900000D01*
X77420000Y-101650000D02*
X77720000Y-101650000D01*
X77420000Y-103150000D02*
X77720000Y-103150000D01*
X81220000Y-101650000D02*
X81220000Y-103150000D01*
X80920000Y-101650000D02*
X80670000Y-101900000D01*
X81220000Y-101650000D02*
X80920000Y-101650000D01*
X77720000Y-101650000D02*
X77970000Y-101900000D01*
X77970000Y-101900000D02*
X77420000Y-102450000D01*
X81005848Y-102076496D02*
G75*
G03*
X81005848Y-102076496I-75000J0D01*
G01*
D11*
%TO.C,MX5*%
X149720000Y-136000000D02*
X144920000Y-136000000D01*
X144920000Y-139000000D02*
X149720000Y-139000000D01*
X149720000Y-139000000D02*
X149720000Y-136000000D01*
X144920000Y-136000000D02*
X144920000Y-139000000D01*
%TO.C,MX4*%
X131720000Y-106000000D02*
X131720000Y-103000000D01*
X126920000Y-103000000D02*
X126920000Y-106000000D01*
X131720000Y-103000000D02*
X126920000Y-103000000D01*
X126920000Y-106000000D02*
X131720000Y-106000000D01*
%TO.C,MX6*%
X167720000Y-106000000D02*
X167720000Y-103000000D01*
X167720000Y-103000000D02*
X162920000Y-103000000D01*
X162920000Y-106000000D02*
X167720000Y-106000000D01*
X162920000Y-103000000D02*
X162920000Y-106000000D01*
%TO.C,R20*%
X114992500Y-73662742D02*
X114992500Y-74137258D01*
X113947500Y-73662742D02*
X113947500Y-74137258D01*
%TO.C,MX2*%
X95720000Y-103000000D02*
X90920000Y-103000000D01*
X90920000Y-103000000D02*
X90920000Y-106000000D01*
X90920000Y-106000000D02*
X95720000Y-106000000D01*
X95720000Y-106000000D02*
X95720000Y-103000000D01*
%TO.C,R2*%
X87082742Y-104922500D02*
X87557258Y-104922500D01*
X87082742Y-103877500D02*
X87557258Y-103877500D01*
%TO.C,R21*%
X110947500Y-73662742D02*
X110947500Y-74137258D01*
X111992500Y-73662742D02*
X111992500Y-74137258D01*
%TO.C,SW1*%
X179120000Y-68800000D02*
X179120000Y-67800000D01*
X181320000Y-68150000D02*
X185320000Y-68150000D01*
X181320000Y-72650000D02*
X181320000Y-68150000D01*
X185320000Y-68157741D02*
X185320000Y-72657741D01*
X185320000Y-72650000D02*
X181320000Y-72650000D01*
X179120000Y-67800000D02*
X180120000Y-67800000D01*
D12*
X184420000Y-70400000D02*
G75*
G03*
X184420000Y-70400000I-1100000J0D01*
G01*
D11*
%TO.C,R7*%
X177082742Y-136877500D02*
X177557258Y-136877500D01*
X177082742Y-137922500D02*
X177557258Y-137922500D01*
D10*
%TO.C,LED4*%
X68070000Y-116300000D02*
X68070000Y-116000000D01*
X67820000Y-113050000D02*
X67820000Y-115750000D01*
X66570000Y-112500000D02*
X66570000Y-112800000D01*
X66570000Y-116300000D02*
X66570000Y-116000000D01*
X68070000Y-112800000D02*
X67820000Y-113050000D01*
X68070000Y-116000000D02*
X67820000Y-115750000D01*
X67820000Y-113050000D02*
X67270000Y-112500000D01*
X68070000Y-112500000D02*
X68070000Y-112800000D01*
X66570000Y-112500000D02*
X68070000Y-112500000D01*
X68070000Y-116300000D02*
X66570000Y-116300000D01*
X67718504Y-116010848D02*
G75*
G03*
X67718504Y-116010848I-75000J0D01*
G01*
%TO.C,LED10*%
X226570000Y-112500000D02*
X228070000Y-112500000D01*
X226570000Y-112500000D02*
X226570000Y-112800000D01*
X228070000Y-116300000D02*
X228070000Y-116000000D01*
X228070000Y-116300000D02*
X226570000Y-116300000D01*
X226820000Y-115750000D02*
X227370000Y-116300000D01*
X226820000Y-115750000D02*
X226820000Y-113050000D01*
X226570000Y-116300000D02*
X226570000Y-116000000D01*
X228070000Y-112500000D02*
X228070000Y-112800000D01*
X226570000Y-112800000D02*
X226820000Y-113050000D01*
X226570000Y-116000000D02*
X226820000Y-115750000D01*
X227071496Y-112789152D02*
G75*
G03*
X227071496Y-112789152I-75000J0D01*
G01*
D11*
%TO.C,SW2*%
X197320000Y-68157741D02*
X197320000Y-72657741D01*
X197320000Y-72650000D02*
X193320000Y-72650000D01*
X193320000Y-72650000D02*
X193320000Y-68150000D01*
X191120000Y-68800000D02*
X191120000Y-67800000D01*
X193320000Y-68150000D02*
X197320000Y-68150000D01*
X191120000Y-67800000D02*
X192120000Y-67800000D01*
D12*
X196420000Y-70400000D02*
G75*
G03*
X196420000Y-70400000I-1100000J0D01*
G01*
D10*
%TO.C,LED6*%
X105420000Y-93150000D02*
X105420000Y-91650000D01*
X105420000Y-91650000D02*
X105720000Y-91650000D01*
X105970000Y-91900000D02*
X108670000Y-91900000D01*
X105720000Y-91650000D02*
X105970000Y-91900000D01*
X109220000Y-91650000D02*
X108920000Y-91650000D01*
X105970000Y-91900000D02*
X105420000Y-92450000D01*
X109220000Y-91650000D02*
X109220000Y-93150000D01*
X109220000Y-93150000D02*
X108920000Y-93150000D01*
X105420000Y-93150000D02*
X105720000Y-93150000D01*
X108920000Y-91650000D02*
X108670000Y-91900000D01*
X109005848Y-92076496D02*
G75*
G03*
X109005848Y-92076496I-75000J0D01*
G01*
D11*
%TO.C,MX3*%
X113720000Y-136000000D02*
X108920000Y-136000000D01*
X113720000Y-139000000D02*
X113720000Y-136000000D01*
X108920000Y-139000000D02*
X113720000Y-139000000D01*
X108920000Y-136000000D02*
X108920000Y-139000000D01*
%TO.C,R9*%
X213257742Y-137922500D02*
X213732258Y-137922500D01*
X213257742Y-136877500D02*
X213732258Y-136877500D01*
D10*
%TO.C,LED9*%
X213420000Y-103150000D02*
X213420000Y-101650000D01*
X213720000Y-101650000D02*
X213970000Y-101900000D01*
X217220000Y-101650000D02*
X217220000Y-103150000D01*
X216920000Y-101650000D02*
X216670000Y-101900000D01*
X213970000Y-101900000D02*
X216670000Y-101900000D01*
X213420000Y-101650000D02*
X213720000Y-101650000D01*
X217220000Y-101650000D02*
X216920000Y-101650000D01*
X213970000Y-101900000D02*
X213420000Y-102450000D01*
X217220000Y-103150000D02*
X216920000Y-103150000D01*
X213420000Y-103150000D02*
X213720000Y-103150000D01*
X217005848Y-102076496D02*
G75*
G03*
X217005848Y-102076496I-75000J0D01*
G01*
D11*
%TO.C,R5*%
X141082742Y-136877500D02*
X141557258Y-136877500D01*
X141082742Y-137922500D02*
X141557258Y-137922500D01*
%TD*%
%LPC*%
D13*
%TO.C,REF\u002A\u002A*%
X62320000Y-142400000D03*
%TD*%
%TO.C,REF\u002A\u002A*%
X87320000Y-72400000D03*
%TD*%
%TO.C,REF\u002A\u002A*%
X207320000Y-72400000D03*
%TD*%
%TO.C,REF\u002A\u002A*%
X232320000Y-142400000D03*
%TD*%
D14*
%TO.C,MX7*%
X179510000Y-129860000D03*
D15*
X183320000Y-132400000D03*
D16*
X178240000Y-132400000D03*
D14*
X185860000Y-127320000D03*
D16*
X188400000Y-132400000D03*
D17*
X181820000Y-137480000D03*
X184820000Y-137480000D03*
%TD*%
D18*
%TO.C,LED2*%
X148595000Y-89400644D03*
X147745000Y-89400644D03*
X146895000Y-89400644D03*
X146045000Y-89400644D03*
%TD*%
D19*
%TO.C,R1*%
X68670000Y-137400000D03*
X70320000Y-137400000D03*
%TD*%
%TO.C,R10*%
X156245000Y-88900000D03*
X157895000Y-88900000D03*
%TD*%
%TO.C,R8*%
X194495000Y-104400000D03*
X196145000Y-104400000D03*
%TD*%
D14*
%TO.C,MX9*%
X221860000Y-127320000D03*
X215510000Y-129860000D03*
D16*
X214240000Y-132400000D03*
X224400000Y-132400000D03*
D15*
X219320000Y-132400000D03*
D17*
X217820000Y-137480000D03*
X220820000Y-137480000D03*
%TD*%
D18*
%TO.C,LED8*%
X188595000Y-93050000D03*
X187745000Y-93050000D03*
X186895000Y-93050000D03*
X186045000Y-93050000D03*
%TD*%
%TO.C,LED1*%
X164595000Y-89400644D03*
X163745000Y-89400644D03*
X162895000Y-89400644D03*
X162045000Y-89400644D03*
%TD*%
D19*
%TO.C,R6*%
X158495000Y-104400000D03*
X160145000Y-104400000D03*
%TD*%
%TO.C,R4*%
X122495000Y-104400000D03*
X124145000Y-104400000D03*
%TD*%
D20*
%TO.C,LED7*%
X146045000Y-93750000D03*
X146895000Y-93750000D03*
X147745000Y-93750000D03*
X148595000Y-93750000D03*
%TD*%
D19*
%TO.C,R3*%
X104495000Y-137400000D03*
X106145000Y-137400000D03*
%TD*%
D14*
%TO.C,MX8*%
X197510000Y-96860000D03*
D16*
X196240000Y-99400000D03*
D15*
X201320000Y-99400000D03*
D14*
X203860000Y-94320000D03*
D16*
X206400000Y-99400000D03*
D17*
X199820000Y-104480000D03*
X202820000Y-104480000D03*
%TD*%
D18*
%TO.C,LED3*%
X132595000Y-89400644D03*
X131745000Y-89400644D03*
X130895000Y-89400644D03*
X130045000Y-89400644D03*
%TD*%
D14*
%TO.C,MX1*%
X71510000Y-129860000D03*
X77860000Y-127320000D03*
D16*
X70240000Y-132400000D03*
D15*
X75320000Y-132400000D03*
D16*
X80400000Y-132400000D03*
D17*
X73820000Y-137480000D03*
X76820000Y-137480000D03*
%TD*%
D18*
%TO.C,LED5*%
X80595000Y-103050000D03*
X79745000Y-103050000D03*
X78895000Y-103050000D03*
X78045000Y-103050000D03*
%TD*%
D16*
%TO.C,MX5*%
X152400000Y-132400000D03*
D14*
X149860000Y-127320000D03*
D15*
X147320000Y-132400000D03*
D16*
X142240000Y-132400000D03*
D14*
X143510000Y-129860000D03*
D17*
X145820000Y-137480000D03*
X148820000Y-137480000D03*
%TD*%
D16*
%TO.C,MX4*%
X124240000Y-99400000D03*
X134400000Y-99400000D03*
D15*
X129320000Y-99400000D03*
D14*
X131860000Y-94320000D03*
X125510000Y-96860000D03*
D17*
X127820000Y-104480000D03*
X130820000Y-104480000D03*
%TD*%
D16*
%TO.C,MX6*%
X160240000Y-99400000D03*
D15*
X165320000Y-99400000D03*
D16*
X170400000Y-99400000D03*
D14*
X167860000Y-94320000D03*
X161510000Y-96860000D03*
D17*
X163820000Y-104480000D03*
X166820000Y-104480000D03*
%TD*%
D21*
%TO.C,R20*%
X114470000Y-73075000D03*
X114470000Y-74725000D03*
%TD*%
D14*
%TO.C,MX2*%
X95860000Y-94320000D03*
X89510000Y-96860000D03*
D16*
X98400000Y-99400000D03*
D15*
X93320000Y-99400000D03*
D16*
X88240000Y-99400000D03*
D17*
X91820000Y-104480000D03*
X94820000Y-104480000D03*
%TD*%
D19*
%TO.C,R2*%
X86495000Y-104400000D03*
X88145000Y-104400000D03*
%TD*%
D21*
%TO.C,R21*%
X111470000Y-73075000D03*
X111470000Y-74725000D03*
%TD*%
D22*
%TO.C,SW1*%
X180395000Y-68900000D03*
X186245000Y-68900000D03*
X180395000Y-71900000D03*
X186245000Y-71900000D03*
%TD*%
D19*
%TO.C,R7*%
X176495000Y-137400000D03*
X178145000Y-137400000D03*
%TD*%
D23*
%TO.C,LED4*%
X66670000Y-115675000D03*
X66670000Y-114825000D03*
X66670000Y-113975000D03*
X66670000Y-113125000D03*
%TD*%
D24*
%TO.C,LED10*%
X227970000Y-113125000D03*
X227970000Y-113975000D03*
X227970000Y-114825000D03*
X227970000Y-115675000D03*
%TD*%
D22*
%TO.C,SW2*%
X192395000Y-68900000D03*
X198245000Y-68900000D03*
X192395000Y-71900000D03*
X198245000Y-71900000D03*
%TD*%
D18*
%TO.C,LED6*%
X108595000Y-93050000D03*
X107745000Y-93050000D03*
X106895000Y-93050000D03*
X106045000Y-93050000D03*
%TD*%
D16*
%TO.C,MX3*%
X106240000Y-132400000D03*
D15*
X111320000Y-132400000D03*
D16*
X116400000Y-132400000D03*
D14*
X107510000Y-129860000D03*
X113860000Y-127320000D03*
D17*
X109820000Y-137480000D03*
X112820000Y-137480000D03*
%TD*%
D19*
%TO.C,R9*%
X212670000Y-137400000D03*
X214320000Y-137400000D03*
%TD*%
D18*
%TO.C,LED9*%
X216595000Y-103050000D03*
X215745000Y-103050000D03*
X214895000Y-103050000D03*
X214045000Y-103050000D03*
%TD*%
D19*
%TO.C,R5*%
X140495000Y-137400000D03*
X142145000Y-137400000D03*
%TD*%
D25*
%TO.C,USB1*%
X116110000Y-68737500D03*
X110330000Y-68737500D03*
D26*
X116445000Y-70182500D03*
X115670000Y-70182500D03*
D27*
X114970000Y-70182500D03*
X114470000Y-70182500D03*
X113970000Y-70182500D03*
X113470000Y-70182500D03*
X112970000Y-70182500D03*
X112470000Y-70182500D03*
X111970000Y-70182500D03*
X111470000Y-70182500D03*
D26*
X110770000Y-70182500D03*
X109995000Y-70182500D03*
D28*
X108900000Y-69267500D03*
D29*
X117540000Y-65087500D03*
D28*
X117540000Y-69267500D03*
D29*
X108900000Y-65087500D03*
%TD*%
D30*
%TO.C,U1*%
X125190000Y-68510000D03*
X127730000Y-68510000D03*
D31*
X130270000Y-68510000D03*
D30*
X132810000Y-68510000D03*
X135350000Y-68510000D03*
X137890000Y-68510000D03*
X140430000Y-68510000D03*
D31*
X142970000Y-68510000D03*
D30*
X145510000Y-68510000D03*
X148050000Y-68510000D03*
X150590000Y-68510000D03*
X153130000Y-68510000D03*
D31*
X155670000Y-68510000D03*
D30*
X158210000Y-68510000D03*
X160750000Y-68510000D03*
X163290000Y-68510000D03*
X165830000Y-68510000D03*
D31*
X168370000Y-68510000D03*
D30*
X170910000Y-68510000D03*
X173450000Y-68510000D03*
X173450000Y-86290000D03*
X170910000Y-86290000D03*
D31*
X168370000Y-86290000D03*
D30*
X165830000Y-86290000D03*
X163290000Y-86290000D03*
X160750000Y-86290000D03*
X158210000Y-86290000D03*
D31*
X155670000Y-86290000D03*
D30*
X153130000Y-86290000D03*
X150590000Y-86290000D03*
X148050000Y-86290000D03*
X145510000Y-86290000D03*
D31*
X142970000Y-86290000D03*
D30*
X140430000Y-86290000D03*
X137890000Y-86290000D03*
X135350000Y-86290000D03*
X132810000Y-86290000D03*
D31*
X130270000Y-86290000D03*
D30*
X127730000Y-86290000D03*
X125190000Y-86290000D03*
X173220000Y-74860000D03*
D31*
X173220000Y-77400000D03*
D30*
X173220000Y-79940000D03*
D32*
X127950000Y-77400000D03*
X124670000Y-78400000D03*
X124650000Y-76400000D03*
%TD*%
M02*
