M48
; DRILL file {KiCad (6.0.7)} date Sat Mar 11 10:43:21 2023
; FORMAT={-:-/ absolute / inch / decimal}
; #@! TF.CreationDate,2023-03-11T10:43:21+08:00
; #@! TF.GenerationSoftware,Kicad,Pcbnew,(6.0.7)
; #@! TF.FileFunction,NonPlated,1,2,NPTH
FMAT,2
INCH
; #@! TA.AperFunction,NonPlated,NPTH,ComponentDrill
T1C0.0256
; #@! TA.AperFunction,NonPlated,NPTH,ComponentDrill
T2C0.0689
; #@! TA.AperFunction,NonPlated,NPTH,ComponentDrill
T3C0.1181
; #@! TA.AperFunction,NonPlated,NPTH,ComponentDrill
T4C0.1260
; #@! TA.AperFunction,NonPlated,NPTH,ComponentDrill
T5C0.1570
%
G90
G05
T1
X4.3437Y-2.7062
X4.5713Y-2.7062
T2
X2.7654Y-5.2126
X3.1654Y-5.2126
X3.474Y-3.9134
X3.874Y-3.9134
X4.1827Y-5.2126
X4.5827Y-5.2126
X4.8913Y-3.9134
X5.2913Y-3.9134
X5.6Y-5.2126
X6.0Y-5.2126
X6.3087Y-3.9134
X6.7087Y-3.9134
X7.0173Y-5.2126
X7.4173Y-5.2126
X7.726Y-3.9134
X8.126Y-3.9134
X8.4346Y-5.2126
X8.8346Y-5.2126
T3
X2.8154Y-5.1126
X3.0654Y-5.0126
X3.524Y-3.8134
X3.774Y-3.7134
X4.2327Y-5.1126
X4.4827Y-5.0126
X4.9413Y-3.8134
X5.1913Y-3.7134
X5.65Y-5.1126
X5.9Y-5.0126
X6.3587Y-3.8134
X6.6087Y-3.7134
X7.0673Y-5.1126
X7.3173Y-5.0126
X7.776Y-3.8134
X8.026Y-3.7134
X8.4846Y-5.1126
X8.7346Y-5.0126
T4
X2.4535Y-5.6063
X3.4378Y-2.8504
X8.1622Y-2.8504
X9.1465Y-5.6063
T5
X2.9654Y-5.2126
X3.674Y-3.9134
X4.3827Y-5.2126
X5.0913Y-3.9134
X5.8Y-5.2126
X6.5087Y-3.9134
X7.2173Y-5.2126
X7.926Y-3.9134
X8.6346Y-5.2126
T0
M30
