%TF.GenerationSoftware,KiCad,Pcbnew,(6.0.7)*%
%TF.CreationDate,2023-03-11T10:43:17+08:00*%
%TF.ProjectId,popn_pico,706f706e-5f70-4696-936f-2e6b69636164,rev?*%
%TF.SameCoordinates,Original*%
%TF.FileFunction,Soldermask,Bot*%
%TF.FilePolarity,Negative*%
%FSLAX46Y46*%
G04 Gerber Fmt 4.6, Leading zero omitted, Abs format (unit mm)*
G04 Created by KiCad (PCBNEW (6.0.7)) date 2023-03-11 10:43:17*
%MOMM*%
%LPD*%
G01*
G04 APERTURE LIST*
G04 Aperture macros list*
%AMRoundRect*
0 Rectangle with rounded corners*
0 $1 Rounding radius*
0 $2 $3 $4 $5 $6 $7 $8 $9 X,Y pos of 4 corners*
0 Add a 4 corners polygon primitive as box body*
4,1,4,$2,$3,$4,$5,$6,$7,$8,$9,$2,$3,0*
0 Add four circle primitives for the rounded corners*
1,1,$1+$1,$2,$3*
1,1,$1+$1,$4,$5*
1,1,$1+$1,$6,$7*
1,1,$1+$1,$8,$9*
0 Add four rect primitives between the rounded corners*
20,1,$1+$1,$2,$3,$4,$5,0*
20,1,$1+$1,$4,$5,$6,$7,0*
20,1,$1+$1,$6,$7,$8,$9,0*
20,1,$1+$1,$8,$9,$2,$3,0*%
G04 Aperture macros list end*
%ADD10C,3.200000*%
%ADD11C,3.000000*%
%ADD12C,3.987800*%
%ADD13C,1.750000*%
%ADD14R,2.550000X2.500000*%
%ADD15C,0.650000*%
%ADD16O,1.000000X2.100000*%
%ADD17O,1.000000X1.600000*%
%ADD18R,1.700000X3.500000*%
%ADD19O,1.700000X1.700000*%
%ADD20R,1.700000X1.700000*%
%ADD21R,3.500000X1.700000*%
%ADD22RoundRect,0.300000X-0.950000X0.450000X-0.950000X-0.450000X0.950000X-0.450000X0.950000X0.450000X0*%
G04 APERTURE END LIST*
D10*
%TO.C,REF\u002A\u002A*%
X62320000Y-142400000D03*
%TD*%
%TO.C,REF\u002A\u002A*%
X87320000Y-72400000D03*
%TD*%
%TO.C,REF\u002A\u002A*%
X207320000Y-72400000D03*
%TD*%
%TO.C,REF\u002A\u002A*%
X232320000Y-142400000D03*
%TD*%
D11*
%TO.C,MX7*%
X179510000Y-129860000D03*
D12*
X183320000Y-132400000D03*
D13*
X178240000Y-132400000D03*
D11*
X185860000Y-127320000D03*
D13*
X188400000Y-132400000D03*
D14*
X176235000Y-129860000D03*
X189162000Y-127320000D03*
%TD*%
D11*
%TO.C,MX9*%
X221860000Y-127320000D03*
X215510000Y-129860000D03*
D13*
X214240000Y-132400000D03*
X224400000Y-132400000D03*
D12*
X219320000Y-132400000D03*
D14*
X212235000Y-129860000D03*
X225162000Y-127320000D03*
%TD*%
D11*
%TO.C,MX8*%
X197510000Y-96860000D03*
D13*
X196240000Y-99400000D03*
D12*
X201320000Y-99400000D03*
D11*
X203860000Y-94320000D03*
D13*
X206400000Y-99400000D03*
D14*
X194235000Y-96860000D03*
X207162000Y-94320000D03*
%TD*%
D11*
%TO.C,MX1*%
X71510000Y-129860000D03*
X77860000Y-127320000D03*
D13*
X70240000Y-132400000D03*
D12*
X75320000Y-132400000D03*
D13*
X80400000Y-132400000D03*
D14*
X68235000Y-129860000D03*
X81162000Y-127320000D03*
%TD*%
D13*
%TO.C,MX5*%
X152400000Y-132400000D03*
D11*
X149860000Y-127320000D03*
D12*
X147320000Y-132400000D03*
D13*
X142240000Y-132400000D03*
D11*
X143510000Y-129860000D03*
D14*
X140235000Y-129860000D03*
X153162000Y-127320000D03*
%TD*%
D13*
%TO.C,MX4*%
X124240000Y-99400000D03*
X134400000Y-99400000D03*
D12*
X129320000Y-99400000D03*
D11*
X131860000Y-94320000D03*
X125510000Y-96860000D03*
D14*
X122235000Y-96860000D03*
X135162000Y-94320000D03*
%TD*%
D13*
%TO.C,MX6*%
X160240000Y-99400000D03*
D12*
X165320000Y-99400000D03*
D13*
X170400000Y-99400000D03*
D11*
X167860000Y-94320000D03*
X161510000Y-96860000D03*
D14*
X158235000Y-96860000D03*
X171162000Y-94320000D03*
%TD*%
D11*
%TO.C,MX2*%
X95860000Y-94320000D03*
X89510000Y-96860000D03*
D13*
X98400000Y-99400000D03*
D12*
X93320000Y-99400000D03*
D13*
X88240000Y-99400000D03*
D14*
X86235000Y-96860000D03*
X99162000Y-94320000D03*
%TD*%
D13*
%TO.C,MX3*%
X106240000Y-132400000D03*
D12*
X111320000Y-132400000D03*
D13*
X116400000Y-132400000D03*
D11*
X107510000Y-129860000D03*
X113860000Y-127320000D03*
D14*
X104235000Y-129860000D03*
X117162000Y-127320000D03*
%TD*%
D15*
%TO.C,USB1*%
X116110000Y-68737500D03*
X110330000Y-68737500D03*
D16*
X108900000Y-69267500D03*
D17*
X117540000Y-65087500D03*
D16*
X117540000Y-69267500D03*
D17*
X108900000Y-65087500D03*
%TD*%
D18*
%TO.C,U1*%
X125190000Y-67610000D03*
D19*
X125190000Y-68510000D03*
D18*
X127730000Y-67610000D03*
D19*
X127730000Y-68510000D03*
D20*
X130270000Y-68510000D03*
D18*
X130270000Y-67610000D03*
D19*
X132810000Y-68510000D03*
D18*
X132810000Y-67610000D03*
X135350000Y-67610000D03*
D19*
X135350000Y-68510000D03*
X137890000Y-68510000D03*
D18*
X137890000Y-67610000D03*
D19*
X140430000Y-68510000D03*
D18*
X140430000Y-67610000D03*
D20*
X142970000Y-68510000D03*
D18*
X142970000Y-67610000D03*
D19*
X145510000Y-68510000D03*
D18*
X145510000Y-67610000D03*
X148050000Y-67610000D03*
D19*
X148050000Y-68510000D03*
X150590000Y-68510000D03*
D18*
X150590000Y-67610000D03*
D19*
X153130000Y-68510000D03*
D18*
X153130000Y-67610000D03*
D20*
X155670000Y-68510000D03*
D18*
X155670000Y-67610000D03*
X158210000Y-67610000D03*
D19*
X158210000Y-68510000D03*
D18*
X160750000Y-67610000D03*
D19*
X160750000Y-68510000D03*
D18*
X163290000Y-67610000D03*
D19*
X163290000Y-68510000D03*
D18*
X165830000Y-67610000D03*
D19*
X165830000Y-68510000D03*
D18*
X168370000Y-67610000D03*
D20*
X168370000Y-68510000D03*
D19*
X170910000Y-68510000D03*
D18*
X170910000Y-67610000D03*
D19*
X173450000Y-68510000D03*
D18*
X173450000Y-67610000D03*
X173450000Y-87190000D03*
D19*
X173450000Y-86290000D03*
X170910000Y-86290000D03*
D18*
X170910000Y-87190000D03*
X168370000Y-87190000D03*
D20*
X168370000Y-86290000D03*
D18*
X165830000Y-87190000D03*
D19*
X165830000Y-86290000D03*
X163290000Y-86290000D03*
D18*
X163290000Y-87190000D03*
X160750000Y-87190000D03*
D19*
X160750000Y-86290000D03*
X158210000Y-86290000D03*
D18*
X158210000Y-87190000D03*
X155670000Y-87190000D03*
D20*
X155670000Y-86290000D03*
D18*
X153130000Y-87190000D03*
D19*
X153130000Y-86290000D03*
X150590000Y-86290000D03*
D18*
X150590000Y-87190000D03*
X148050000Y-87190000D03*
D19*
X148050000Y-86290000D03*
X145510000Y-86290000D03*
D18*
X145510000Y-87190000D03*
X142970000Y-87190000D03*
D20*
X142970000Y-86290000D03*
D18*
X140430000Y-87190000D03*
D19*
X140430000Y-86290000D03*
X137890000Y-86290000D03*
D18*
X137890000Y-87190000D03*
X135350000Y-87190000D03*
D19*
X135350000Y-86290000D03*
D18*
X132810000Y-87190000D03*
D19*
X132810000Y-86290000D03*
D20*
X130270000Y-86290000D03*
D18*
X130270000Y-87190000D03*
D19*
X127730000Y-86290000D03*
D18*
X127730000Y-87190000D03*
X125190000Y-87190000D03*
D19*
X125190000Y-86290000D03*
D21*
X174120000Y-74860000D03*
D19*
X173220000Y-74860000D03*
D20*
X173220000Y-77400000D03*
D21*
X174120000Y-77400000D03*
D19*
X173220000Y-79940000D03*
D21*
X174120000Y-79940000D03*
D22*
X127950000Y-77400000D03*
X124670000Y-78400000D03*
X124650000Y-76400000D03*
%TD*%
M02*
