M48
; DRILL file {KiCad (6.0.7)} date Sat Mar 11 10:43:21 2023
; FORMAT={-:-/ absolute / inch / decimal}
; #@! TF.CreationDate,2023-03-11T10:43:21+08:00
; #@! TF.GenerationSoftware,Kicad,Pcbnew,(6.0.7)
; #@! TF.FileFunction,Plated,1,2,PTH
FMAT,2
INCH
; #@! TA.AperFunction,Plated,PTH,ViaDrill
T1C0.0157
; #@! TA.AperFunction,Plated,PTH,ViaDrill
T2C0.0236
; #@! TA.AperFunction,Plated,PTH,ComponentDrill
T3C0.0236
; #@! TA.AperFunction,Plated,PTH,ComponentDrill
T4C0.0402
; #@! TA.AperFunction,Plated,PTH,ComponentDrill
T5C0.0472
%
G90
G05
T1
X2.7488Y-4.7795
X3.4969Y-3.6772
X4.1661Y-4.7795
X4.9142Y-3.6772
X5.5785Y-4.7844
X6.3315Y-3.6772
X7.0008Y-4.7795
X7.7488Y-3.6772
X8.2409Y-5.4094
T2
X2.798Y-4.3858
X3.0244Y-4.0807
X4.0283Y-3.7165
X4.2252Y-2.9094
X4.3886Y-3.0177
X4.5205Y-3.628
X4.8256Y-3.4902
X5.7114Y-3.5394
X5.8984Y-3.7165
X6.3217Y-3.5492
X7.2862Y-3.5787
X8.3984Y-3.9823
X8.9751Y-4.6142
T4
X4.9287Y-2.6972
X4.9287Y-3.3972
X5.0287Y-2.6972
X5.0287Y-3.3972
X5.1287Y-2.6972
X5.1287Y-3.3972
X5.2287Y-2.6972
X5.2287Y-3.3972
X5.3287Y-2.6972
X5.3287Y-3.3972
X5.4287Y-2.6972
X5.4287Y-3.3972
X5.5287Y-2.6972
X5.5287Y-3.3972
X5.6287Y-2.6972
X5.6287Y-3.3972
X5.7287Y-2.6972
X5.7287Y-3.3972
X5.8287Y-2.6972
X5.8287Y-3.3972
X5.9287Y-2.6972
X5.9287Y-3.3972
X6.0287Y-2.6972
X6.0287Y-3.3972
X6.1287Y-2.6972
X6.1287Y-3.3972
X6.2287Y-2.6972
X6.2287Y-3.3972
X6.3287Y-2.6972
X6.3287Y-3.3972
X6.4287Y-2.6972
X6.4287Y-3.3972
X6.5287Y-2.6972
X6.5287Y-3.3972
X6.6287Y-2.6972
X6.6287Y-3.3972
X6.7287Y-2.6972
X6.7287Y-3.3972
X6.8197Y-2.9472
X6.8197Y-3.0472
X6.8197Y-3.1472
X6.8287Y-2.6972
X6.8287Y-3.3972
T3
G00X4.2874Y-2.5743
M15
G01X4.2874Y-2.5507
M16
G05
G00X4.2874Y-2.7487
M15
G01X4.2874Y-2.7054
M16
G05
G00X4.6276Y-2.5743
M15
G01X4.6276Y-2.5507
M16
G05
G00X4.6276Y-2.7487
M15
G01X4.6276Y-2.7054
M16
G05
T5
G00X4.9272Y-3.0079
M15
G01X4.8878Y-3.0079
M16
G05
G00X4.928Y-3.0866
M15
G01X4.8886Y-3.0866
M16
G05
G00X5.0571Y-3.0472
M15
G01X5.0177Y-3.0472
M16
G05
T0
M30
